<svg id="Layer_1" data-name="Layer 1" xmlns="http://www.w3.org/2000/svg" viewBox="0 0 530.92 189.35"><defs><style>.cls-1{fill:#0e3886;}</style></defs><path class="cls-1" d="M520.49,139.38a7.35,7.35,0,1,0-7.14-7.35A7.25,7.25,0,0,0,520.49,139.38Zm0-13.83a6.48,6.48,0,1,1-6.3,6.48A6.39,6.39,0,0,1,520.49,125.55Z"/><path class="cls-1" d="M519.17,132.74h1.32a1.06,1.06,0,0,1,.77.21,1.28,1.28,0,0,1,.22.85v.62a3.66,3.66,0,0,0,0,.57q0,.13.09.36h1.49v-.17a.58.58,0,0,1-.25-.38,4.09,4.09,0,0,1,0-.62v-.45a2.19,2.19,0,0,0-.19-1,1.15,1.15,0,0,0-.63-.52,1.33,1.33,0,0,0,.76-.65,2,2,0,0,0,.24-.94,1.94,1.94,0,0,0-.12-.7,2.12,2.12,0,0,0-.33-.56,1.59,1.59,0,0,0-.6-.46,2.69,2.69,0,0,0-1-.17h-3.1v6.66h1.32Zm0-2.9h1.5a1.28,1.28,0,0,1,.62.12.84.84,0,0,1,.37.81.75.75,0,0,1-.38.75,1.41,1.41,0,0,1-.65.11h-1.46Z"/><path class="cls-1" d="M430.36,128.37v-47c-.06-.87-.15-4.88-.28-5.72a31.43,31.43,0,0,0-55.27-15.31l5,2.49a8,8,0,0,0,7.85-.4,21.11,21.11,0,0,1,12-3.28c11.58.33,20.64,10.14,20.64,21.71V84h0a31.4,31.4,0,0,0-42.5,0,28,28,0,0,0-2.4,2.47,31.33,31.33,0,0,0-7.69,23.15,31.43,31.43,0,0,0,52.79,20.51ZM420.27,107.1a21.26,21.26,0,1,1-42.52,0c0-.12,0-.26,0-.39a21.25,21.25,0,0,1,42.5,0h0Z"/><path class="cls-1" d="M451.85,121.5a24.19,24.19,0,0,1-5.66,5.31c-.62.4-1.19.73-1.84,1.08a11.18,11.18,0,0,1-5.34,1.38,10.71,10.71,0,0,1-3.37-.54,13.59,13.59,0,0,1-4.79-2.81,20.46,20.46,0,0,1-4.17-5.19l-8.69,5a29.35,29.35,0,0,0,8.8,9.69,22.88,22.88,0,0,0,5.76,2.84,21,21,0,0,0,16.52-1.54c3.05-1.63,8.27-6.27,10.52-9l-5.73-8.78Z"/><path class="cls-1" d="M329.9,83.84c0-11.57,8.08-18.39,18.4-18.72A17.25,17.25,0,0,1,359,68.4a6.47,6.47,0,0,0,7,.4l4.44-2.49c-5.13-6.94-12.9-11.37-21.57-11.37-14,0-25.66,11.57-27.7,26.68-.12.84-.2,1.86-.25,2.73Z"/><path class="cls-1" d="M148.79,79.78c-.09-.13-.17-.27-.26-.41a37.32,37.32,0,1,0,.26.41Zm-33.32,47.84a27.57,27.57,0,0,1-7-54.23,27.49,27.49,0,0,1,22.41,3.77,27.57,27.57,0,0,1-15.37,50.46Z"/><path class="cls-1" d="M123.53,100.05A8.06,8.06,0,1,1,115.47,92,8.05,8.05,0,0,1,123.53,100.05Z"/><path class="cls-1" d="M66.08,128.37v-47c0-.87-.14-4.88-.27-5.72A31.43,31.43,0,0,0,10.54,60.33l5,2.49a8,8,0,0,0,7.85-.4,21.11,21.11,0,0,1,12-3.28C46.94,59.47,56,69.28,56,80.85V84h0a31.26,31.26,0,0,0-21.25-8.28,31,31,0,0,0-7.93,1,31.27,31.27,0,0,0-13.33,7.26,29.43,29.43,0,0,0-2.4,2.47,31.43,31.43,0,0,0,45.1,43.66ZM56,107.1a21.26,21.26,0,1,1-42.52,0v-.39a21.26,21.26,0,0,1,42.51,0h0Z"/><circle class="cls-1" cx="115.55" cy="20.5" r="14.88"/><path class="cls-1" d="M78.86,113l-5.54-1.32a5.54,5.54,0,0,1,2.58-10.78l5.54,1.33A5.54,5.54,0,0,1,78.86,113Z"/><path class="cls-1" d="M95.14,68l20.41-37.52,9.06-.14s10.82,7,11.09,17.58,0,25.7,0,25.7Z"/><path class="cls-1" d="M228.58,128.37v-47c-.05-.87-.14-4.88-.27-5.72A31.44,31.44,0,0,0,173,60.33l5,2.49a8,8,0,0,0,7.85-.4,21.11,21.11,0,0,1,12-3.28c11.58.33,20.64,10.14,20.64,21.71V84h0a31.26,31.26,0,0,0-21.25-8.28,31,31,0,0,0-7.93,1A31.27,31.27,0,0,0,176,83.94a29.43,29.43,0,0,0-2.4,2.47,31.43,31.43,0,0,0,45.1,43.66ZM218.5,107.1a21.26,21.26,0,1,1-42.52,0v-.39a21.26,21.26,0,0,1,42.51,0h0Z"/><path class="cls-1" d="M247.5,123.71a16.3,16.3,0,0,1-4.92,4.18,11.22,11.22,0,0,1-5.35,1.38,10.69,10.69,0,0,1-3.36-.54,13.59,13.59,0,0,1-4.79-2.81,20.71,20.71,0,0,1-4.18-5.19l-8.68,5a29.43,29.43,0,0,0,8.79,9.69,23,23,0,0,0,5.77,2.84,21,21,0,0,0,16.52-1.54,25.47,25.47,0,0,0,6.11-4.6,2.54,2.54,0,0,0-.2-3.76l-5.71-4.67Z"/><path class="cls-1" d="M84.84,123.8a16.52,16.52,0,0,1-4.9,4.15,11.24,11.24,0,0,1-5.32,1.37,10.8,10.8,0,0,1-3.34-.53A13.67,13.67,0,0,1,66.51,126a20.88,20.88,0,0,1-4.15-5.17l-8.64,5a29.1,29.1,0,0,0,8.75,9.63,22.63,22.63,0,0,0,5.73,2.82,20.64,20.64,0,0,0,6.42,1,21.08,21.08,0,0,0,10-2.55,26.28,26.28,0,0,0,7.94-6.64l-7.73-6.31Z"/><path class="cls-1" d="M174.21,124.35a15.81,15.81,0,0,1-4.73,4,10.89,10.89,0,0,1-5.13,1.33,10.38,10.38,0,0,1-3.22-.52,13.1,13.1,0,0,1-4.6-2.69,19.61,19.61,0,0,1-4-5l-8.33,4.82a28.1,28.1,0,0,0,8.43,9.3,22.22,22.22,0,0,0,5.53,2.72,20,20,0,0,0,6.19,1,20.38,20.38,0,0,0,9.66-2.46,25.2,25.2,0,0,0,7.65-6.4l-7.45-6.09Z"/><path class="cls-1" d="M151.34,11.52h5.71a0,0,0,0,1,0,0V127a0,0,0,0,1,0,0H145a0,0,0,0,1,0,0V17.83a6.31,6.31,0,0,1,6.31-6.31Z"/><path class="cls-1" d="M321.86,115.88l-4.44,5.62a24.8,24.8,0,0,1-5.92,5.31c-.64.4-1.24.73-1.91,1.08a12.16,12.16,0,0,1-5.59,1.38,11.54,11.54,0,0,1-3.51-.54,14.34,14.34,0,0,1-5-2.81l0,0a8,8,0,0,1-2.6-6.08V11.52c-8.38,0-10.81,2.31-10.81,12V117c0,7.21,3.12,14.07,8.53,18l.65.45a24.31,24.31,0,0,0,6,2.84,22.85,22.85,0,0,0,17.26-1.54c3.18-1.63,8.63-7,11-9.77Z"/><path class="cls-1" d="M320.75,138.42h10.14V52.5h0a10.14,10.14,0,0,0-10.14,10.14Z"/><path class="cls-1" d="M268.94,49h42.89a0,0,0,0,1,0,0v4.89a5.41,5.41,0,0,1-5.41,5.41H263.53a0,0,0,0,1,0,0V54.38A5.41,5.41,0,0,1,268.94,49Z"/><path class="cls-1" d="M503.81,52.5a10.14,10.14,0,0,0-10.14,10.14v47.94A19.09,19.09,0,0,1,482.91,128a18.48,18.48,0,0,1-7.79,1.72,18.94,18.94,0,0,1-12.06-4.39,20.51,20.51,0,0,1-7.26-16V52.5a10.14,10.14,0,0,0-10.14,10.14v46.24a31.18,31.18,0,0,0,7.27,20.36c4.45,5.19,11.43,9.8,22.19,9.8a27,27,0,0,0,18.55-7.53v31a10.25,10.25,0,0,1-5.4,9,17.73,17.73,0,0,1-8.34,2.15,17.28,17.28,0,0,1-5.26-.84,21,21,0,0,1-7.34-4.29,30.58,30.58,0,0,1-6.19-7.7l-6.33,3.67a2.61,2.61,0,0,0-.86,3.7,37.65,37.65,0,0,0,10.13,10.44,29.8,29.8,0,0,0,7.51,3.69,27.06,27.06,0,0,0,8.34,1.33,27.64,27.64,0,0,0,13-3.33l.77-.44a21.11,21.11,0,0,0,10.07-18.11V52.5Z"/></svg>